# AST/ASF file generated using VICON BodyLanguage
# -----------------------------------------------
:version 1.10
:name VICON
:units
  mass 1.0
  length 0.45
  angle deg
:documentation
   .ast/.asf automatically generated from VICON data using
   VICON BodyBuilder and BodyLanguage model FoxedUp or BRILLIANT.MOD
:root
   order TX TY TZ RX RY RZ
   axis XYZ
   position 0 0 0  
   orientation 0 0 0 
:bonedata
  begin
     id 1 
     name lhipjoint
     direction 0.692814 -0.645514 0.321437 
     length 2.38754 
     axis 0 0 0  XYZ
  end
  begin
     id 2 
     name lfemur
     direction 0.34202 -0.939693 0  
     length 6.41921  
     axis 0 0 20  XYZ
    dof rx ry rz
    limits (-160.0 20.0)
           (-70.0 70.0)
           (-60.0 70.0)
  end
  begin
     id 3 
     name ltibia
     direction 0.34202 -0.939693 0   
     length 6.98247   
     axis 0 0 20   XYZ
    dof rx
    limits (-10.0 170.0)
  end
  begin
     id 4 
     name lfoot
     direction 0.0947186 -0.260237 0.960888   
     length 1.83034   
     axis -90 7.62852e-016 20   XYZ
    dof rx rz
    limits (-45.0 90.0)
           (-70.0 20.0)
  end
  begin
     id 5 
     name ltoes
     direction 1.53538e-011 -4.21952e-011 1   
     length 0.920499   
     axis -90 7.62852e-016 20   XYZ
    dof rx
    limits (-90.0 20.0)
  end
  begin
     id 6 
     name rhipjoint
     direction -0.631686 -0.693949 0.345555   
     length 2.2209  
     axis 0 0 0  XYZ 
  end
  begin
     id 7 
     name rfemur
     direction -0.34202 -0.939693 0   
     length 6.49542   
     axis 0 0 -20   XYZ
    dof rx ry rz
    limits (-160.0 20.0)
           (-70.0 70.0)
           (-70.0 60.0)
  end
  begin
     id 8 
     name rtibia
     direction -0.34202 -0.939693 0   
     length 7.21712   
     axis 0 0 -20   XYZ
    dof rx
    limits (-10.0 170.0)
 end
 begin
     id 9 
     name rfoot
     direction -0.0825378 -0.226771 0.970444   
     length 1.89724  
     axis -90 -7.62852e-016 -20   XYZ
    dof rx rz
    limits (-45.0 90.0)
           (-20.0 70.0)
  end
  begin
     id 10 
     name rtoes
     direction -1.53515e-011 -4.22016e-011 1   
     length 0.955868   
     axis -90 -7.62852e-016 -20   XYZ
    dof rx
    limits (-90.0 20.0)
  end
  begin
     id 11 
     name lowerback
     direction -0.0104711 0.984802 -0.173368   
     length 1.84931   
     axis 0 0 0   XYZ
    dof rx ry rz
    limits (-20.0 45.0)
           (-30.0 30.0)
           (-30.0 30.0)
  end
  begin
     id 12 
     name upperback
     direction -0.00286433 0.999996 -0.000382853   
     length 1.85768   
     axis 0 0 0   XYZ
    dof rx ry rz
    limits (-20.0 45.0)
           (-30.0 30.0)
           (-30.0 30.0)
  end
  begin
     id 13 
     name thorax
     direction 0.00167534 0.996793 0.0800069   
     length 1.92   
     axis 0 0 0   XYZ
    dof rx ry rz
    limits (-20.0 45.0)
           (-30.0 30.0)
           (-30.0 30.0)
  end
  begin
     id 14 
     name lowerneck
     direction -0.0672491 0.995415 0.068018   
     length 1.58923   
     axis 0 0 0   XYZ
    dof rx ry rz
    limits (-20.0 45.0)
           (-30.0 30.0)
           (-30.0 30.0)
  end
  begin
     id 15 
     name upperneck
     direction 0.0958019 0.982476 -0.159884   
     length 1.60189   
     axis 0 0 0   XYZ
    dof rx ry rz
    limits (-20.0 45.0)
           (-30.0 30.0)
           (-30.0 30.0)
  end
  begin
     id 16
     name head
     direction 0.032989 0.997338 -0.0650226  
     length 1.61681  
     axis 0 0 0   XYZ
    dof rx ry rz
    limits (-20.0 45.0)
           (-30.0 30.0)
           (-30.0 30.0)
  end
  begin
     id 17 
     name lclavicle
     direction 0.954279 0.298875 -0.00496069  
     length 2.99449  
     axis 0 0 0   XYZ
    dof ry rz
    limits (-20.0 10.0)
           (0.0 20.0)
  end
  begin
     id 18 
     name lhumerus
     direction 1 -4.48985e-011 -4.2057e-027   
     length 4.79185   
     axis 180 -30 -90   XYZ
    dof rx ry rz
    limits (-60.0 90.0)
           (-90.0 90.0)
           (-90.0 90.0)
  end
  begin
     id 19
     name lradius
     direction 1 -4.48945e-011 1.15441e-028   
     length 2.65553   
     axis 180 -30 -90   XYZ
    dof rx
    limits (-10.0 170.0)
  end
  begin
     id 20
     name lwrist
     direction 1 -4.4899e-011 4.8894e-028   
     length 1.32777   
     axis -2.56392e-016 90 90   XYZ
    dof ry
    limits (-180.0 0.0)
 end
  begin
     id 21 
     name lhand
     direction 1 -4.48908e-011 9.7788e-028   
     length 0.743904   
     axis -6.23971e-016 90 90   XYZ
    dof rx rz
    limits (-90.0 90.0)
           (-45.0 45.0)
  end
  begin
     id 22 
     name lfingers
     direction 1 -4.49068e-011 1.95576e-027   
     length 0.599754   
     axis -1.24794e-015 90 90   XYZ
    dof rx
    limits (0.0 90.0)
  end
  begin
     id 23
     name lthumb
     direction 0.707107 -6.34883e-011 0.707107   
     length 0.861131   
     axis -90 45 2.85299e-015   XYZ
    dof rx rz
    limits (-45.0 45.0)
           (-45.0 45.0)
  end
  begin
     id 24 
     name rclavicle
     direction -0.957921 0.286916 0.00811568   
     length 3.06817  
     axis 0 0 0   XYZ 
    dof ry rz
    limits (-10.0 20.0)
           (-20.0 0.0)
  end
  begin
     id 25 
     name rhumerus
     direction -1 -4.48971e-011 -3.07942e-027  
     length 4.77254   
     axis 180 30 90   XYZ
    dof rx ry rz
    limits (-90.0 60.0)
           (-90.0 90.0)
           (-90.0 90.0)
  end
  begin
     id 26 
     name rradius
     direction -1 -4.48957e-011 -9.6815e-028   
     length 2.75995   
     axis 180 30 90   XYZ
    dof rx
    limits (-10.0 170.0)
  end
  begin
     id 27 
     name rwrist
     direction -1 -4.48979e-011 4.8894e-028   
     length 1.37997   
     axis -2.56392e-016 -90 -90   XYZ
    dof ry
    limits (-180.0 0.0)
  end
  begin
     id 28
     name rhand
     direction -1 -4.48906e-011 9.7788e-028   
     length 0.701619   
     axis -6.23971e-016 -90 -90   XYZ
    dof rx rz
    limits (-90.0 90.0)
           (-45.0 45.0)
  end
  begin
     id 29
     name rfingers
     direction -1 -4.49018e-011 1.95576e-027   
     length 0.565663   
     axis -1.24794e-015 -90 -90   XYZ
    dof rx
    limits (0.0 90.0)
  end
  begin
     id 30
     name rthumb
     direction -0.707107 -6.34881e-011 0.707107   
     length 0.812183   
     axis -90 -45 -2.85299e-015   XYZ
    dof rx rz
    limits (-45.0 45.0)
           (-45.0 45.0)
  end
:hierarchy
  begin
    root lhipjoint rhipjoint lowerback
    lhipjoint lfemur
    lfemur ltibia
    ltibia lfoot
    lfoot ltoes
    rhipjoint rfemur
    rfemur rtibia
    rtibia rfoot
    rfoot rtoes
    lowerback upperback
    upperback thorax
    thorax lowerneck lclavicle rclavicle
    lowerneck upperneck
    upperneck head
    lclavicle lhumerus
    lhumerus lradius
    lradius lwrist
    lwrist lhand lthumb
    lhand lfingers
    rclavicle rhumerus
    rhumerus rradius
    rradius rwrist
    rwrist rhand rthumb
    rhand rfingers
  end

#!OML:ASF F:\VICON\USERDATA\INSTALL\rory3\rory3.ASF
:FULLY-SPECIFIED
:DEGREES
73
root 0.25475 16.1469 0.153707 0.88733 2.34369 -0.791516
lowerback 8.95508 0.341888 -1.21655
upperback -0.605784 0.318317 -0.107452
thorax -5.6672 0.191784 0.529002
lowerneck -12.3838 -6.35925 -11.2961
upperneck 22.6128 -9.0304 10.6412
head 10.2585 -4.02914 4.49702
rclavicle -9.06955e-016 9.74045e-015
rhumerus -44.6114 -5.06525 -79.6883
rradius 30.488
rwrist 5.89807
rhand -11.1149 11.9197
rfingers 7.12502
rthumb 14.9098 -17.5238
lclavicle -9.06955e-016 9.74045e-015
lhumerus -43.9173 0.519079 79.8234
lradius 37.4651
lwrist 8.18791
lhand -5.50499 16.03
lfingers 7.12502
lthumb 20.3082 44.9883
rfemur -0.516611 11.65 18.2223
rtibia 14.5185
rfoot -10.7164 -15.7138
rtoes -6.96512
lfemur 2.39781 -11.5783 -16.437
ltibia 6.06699
lfoot -6.77968 8.41521
ltoes -8.34861
74
root 0.253118 16.1468 0.154551 0.883594 2.31331 -0.830475
lowerback 8.94958 0.357133 -1.1968
upperback -0.59069 0.342781 -0.0751299
thorax -5.64876 0.203582 0.548333
lowerneck -12.3631 -6.35002 -11.3385
upperneck 22.5547 -9.00907 10.6604
head 10.234 -4.02185 4.51345
rclavicle -1.95057e-015 7.7526e-015
rhumerus -44.5961 -5.10835 -79.6294
rradius 30.4629
rwrist 5.96679
rhand -11.1221 11.8908
rfingers 7.12502
rthumb 14.9029 -17.5531
lclavicle -1.95057e-015 7.7526e-015
lhumerus -43.9145 0.52051 79.8419
lradius 37.5029
lwrist 8.20856
lhand -5.42091 16.1412
lfingers 7.12502
lthumb 20.389 45.0908
rfemur -0.491069 11.7129 18.2743
rtibia 14.481
rfoot -10.6961 -15.7239
rtoes -6.84159
lfemur 2.36579 -11.5478 -16.3936
ltibia 6.15176
lfoot -6.8168 8.40704
ltoes -8.70484
75
root 0.252429 16.1469 0.154772 0.883772 2.3132 -0.828762
lowerback 8.98116 0.378707 -1.18328
upperback -0.599739 0.372313 -0.0777225
thorax -5.67658 0.217849 0.533774
lowerneck -12.3375 -6.34768 -11.2977
upperneck 22.5441 -9.00548 10.6181
head 10.2205 -4.0219 4.49192
rclavicle 1.21756e-015 -1.98785e-016
rhumerus -44.6705 -5.20929 -79.5683
rradius 30.4893
rwrist 6.00763
rhand -11.1103 11.8903
rfingers 7.12502
rthumb 14.9143 -17.5528
lclavicle 1.21756e-015 -1.98785e-016
lhumerus -43.8989 0.399658 79.8746
lradius 37.4834
lwrist 8.23935
lhand -5.4077 16.1765
lfingers 7.12502
lthumb 20.4016 45.1248
rfemur -0.482976 11.7252 18.2763
rtibia 14.4671
rfoot -10.6564 -15.7345
rtoes -6.72473
lfemur 2.35236 -11.5477 -16.3892
ltibia 6.17145
lfoot -6.78953 8.3801
ltoes -8.49014
76
root 0.252179 16.1468 0.155339 0.864057 2.3226 -0.829929
lowerback 9.06409 0.380994 -1.15907
upperback -0.630847 0.376155 -0.085317
thorax -5.75607 0.219385 0.511141
lowerneck -12.3157 -6.33269 -11.2702
upperneck 22.5842 -8.99036 10.5954
head 10.2261 -4.01543 4.48257
rclavicle 6.54747e-015 1.98785e-015
rhumerus -44.7814 -5.21426 -79.5922
rradius 30.5178
rwrist 5.95564
rhand -11.2527 11.9135
rfingers 7.12502
rthumb 14.777 -17.5397
lclavicle 6.54747e-015 1.98785e-015
lhumerus -43.9549 0.390044 79.8368
lradius 37.4712
lwrist 8.17795
lhand -5.45842 16.0882
lfingers 7.12502
lthumb 20.3529 45.0417
rfemur -0.457444 11.711 18.2866
rtibia 14.4675
rfoot -10.6747 -15.7494
rtoes -6.72387
lfemur 2.35988 -11.5584 -16.3891
ltibia 6.18728
lfoot -6.80753 8.38791
ltoes -8.39918
77
root 0.252624 16.1463 0.155417 0.86698 2.31864 -0.873663
lowerback 9.0793 0.38229 -1.07414
upperback -0.626116 0.386746 -0.0895707
thorax -5.75922 0.22192 0.457363
lowerneck -12.3411 -6.31606 -11.2562
upperneck 22.5915 -8.97152 10.6102
head 10.2312 -4.00312 4.48803
rclavicle 1.18028e-015 7.35503e-015
rhumerus -44.7957 -5.23429 -79.6157
rradius 30.509
rwrist 5.91285
rhand -11.3167 11.9344
rfingers 7.12502
rthumb 14.7154 -17.5233
lclavicle 1.18028e-015 7.35503e-015
lhumerus -43.9348 0.394153 79.7856
lradius 37.4374
lwrist 8.12373
lhand -5.43453 15.9091
lfingers 7.12502
lthumb 20.3759 44.8602
rfemur -0.483912 11.6827 18.3325
rtibia 14.5053
rfoot -10.6818 -15.739
rtoes -6.67386
lfemur 2.40633 -11.5528 -16.3459
ltibia 6.10753
lfoot -6.80091 8.42519
ltoes -8.41601
78
root 0.251953 16.1463 0.155092 0.883826 2.33439 -0.829901
lowerback 9.05565 0.364902 -1.11033
upperback -0.593393 0.359366 -0.10354
thorax -5.71114 0.208994 0.467205
lowerneck -12.431 -6.28368 -11.196
upperneck 22.6107 -8.91957 10.5641
head 10.2434 -3.97579 4.46711
rclavicle 1.24737e-014 1.98785e-016
rhumerus -44.7031 -5.27873 -79.5992
rradius 30.4351
rwrist 5.98611
rhand -11.3352 12.0572
rfingers 7.12502
rthumb 14.6976 -17.4018
lclavicle 1.24737e-014 1.98785e-016
lhumerus -43.8374 0.516461 79.6971
lradius 37.3549
lwrist 8.0103
lhand -5.42266 15.8404
lfingers 7.12502
lthumb 20.3873 44.7902
rfemur -0.531333 11.652 18.2868
rtibia 14.5709
rfoot -10.6538 -15.7343
rtoes -7.29515
lfemur 2.45682 -11.5674 -16.3906
ltibia 5.97176
lfoot -6.71912 8.44249
ltoes -8.70286
79
root 0.251638 16.1461 0.156208 0.885692 2.32763 -0.746418
lowerback 9.03071 0.374663 -1.18322
upperback -0.565174 0.363191 -0.135227
thorax -5.66774 0.212272 0.474864
lowerneck -12.3729 -6.25398 -11.1008
upperneck 22.5254 -8.88724 10.5267
head 10.1905 -3.95899 4.44139
rclavicle -3.50358e-015 8.15017e-015
rhumerus -44.6596 -5.34936 -79.5893
rradius 30.3628
rwrist 6.01124
rhand -11.3215 12.2088
rfingers 7.12502
rthumb 14.7108 -17.2492
lclavicle -3.50358e-015 8.15017e-015
lhumerus -43.7562 0.537425 79.6502
lradius 37.2928
lwrist 7.94882
lhand -5.41594 15.7998
lfingers 7.12502
lthumb 20.3937 44.7489
rfemur -0.555406 11.6667 18.1922
rtibia 14.6233
rfoot -10.7362 -15.7181
rtoes -7.259
lfemur 2.50441 -11.5616 -16.484
ltibia 5.88684
lfoot -6.67581 8.44498
ltoes -9.00947
